  0
SECTION
  2
BLOCKS
  0
ENDSEC
  0
SECTION
  2
ENTITIES
  0
LINE
  8
0
 10
81.5881
 20
-24.6995
 11
84.1346
 21
-23.1083
  0
LINE
  8
0
 10
84.1346
 20
-23.1083
 11
86.4083
 21
-20.9126
  0
LINE
  8
0
 10
86.4083
 20
-20.9126
 11
88.1759
 21
-18.292
  0
LINE
  8
0
 10
88.1759
 20
-18.292
 11
89.36
 21
-15.3613
  0
LINE
  8
0
 10
89.36
 20
-15.3613
 11
89.7678
 21
-13.0484
  0
LINE
  8
0
 10
89.7678
 20
-13.0484
 11
89.7689
 21
-13.0486
  0
LINE
  8
0
 10
89.7689
 20
-13.0486
 11
89.7696
 21
-13.0386
  0
LINE
  8
0
 10
89.7696
 20
-13.0386
 11
89.7713
 21
-13.0287
  0
LINE
  8
0
 10
89.7713
 20
-13.0287
 11
89.7703
 21
-13.0286
  0
LINE
  8
0
 10
89.7703
 20
-13.0286
 11
89.9341
 21
-10.6858
  0
LINE
  8
0
 10
89.9341
 20
-10.6858
 11
89.4942
 21
-7.5556
  0
LINE
  8
0
 10
89.4942
 20
-7.5556
 11
88.4131
 21
-4.5853
  0
LINE
  8
0
 10
88.4131
 20
-4.5853
 11
86.738
 21
-1.90466
  0
LINE
  8
0
 10
86.738
 20
-1.90466
 11
84.6522
 21
0.25531
  0
LINE
  8
0
 10
84.6522
 20
0.25531
 11
84.6544
 21
0.274033
  0
LINE
  8
0
 10
84.6544
 20
0.274033
 11
78.6992
 21
1.00525
  0
LINE
  8
0
 10
78.6992
 20
1.00525
 11
78.6964
 21
0.982422
  0
LINE
  8
0
 10
78.6964
 20
0.982422
 11
78.569
 21
1.01836
  0
LINE
  8
0
 10
78.569
 20
1.01836
 11
77.4065
 21
0.880783
  0
LINE
  8
0
 10
77.4065
 20
0.880783
 11
76.3852
 21
0.308823
  0
LINE
  8
0
 10
76.3852
 20
0.308823
 11
75.6606
 21
-0.610413
  0
LINE
  8
0
 10
75.6606
 20
-0.610413
 11
75.3428
 21
-1.737
  0
LINE
  8
0
 10
75.3428
 20
-1.737
 11
75.4804
 21
-2.89943
  0
LINE
  8
0
 10
75.4804
 20
-2.89943
 11
76.0524
 21
-3.92072
  0
LINE
  8
0
 10
76.0524
 20
-3.92072
 11
76.9716
 21
-4.6454
  0
LINE
  8
0
 10
76.9716
 20
-4.6454
 11
77.9708
 21
-4.92719
  0
LINE
  8
0
 10
77.9708
 20
-4.92719
 11
77.9682
 21
-4.94818
  0
LINE
  8
0
 10
77.9682
 20
-4.94818
 11
83.2147
 21
-4.62807
  0
LINE
  8
0
 10
83.2147
 20
-4.62807
 11
83.2991
 21
-4.60748
  0
LINE
  8
0
 10
83.2991
 20
-4.60748
 11
83.3555
 21
-4.61948
  0
LINE
  8
0
 10
83.3555
 20
-4.61948
 11
83.4397
 21
-4.61435
  0
LINE
  8
0
 10
83.4397
 20
-4.61435
 11
83.4496
 21
-4.61557
  0
LINE
  8
0
 10
83.4496
 20
-4.61557
 11
83.4467
 21
-4.63887
  0
LINE
  8
0
 10
83.4467
 20
-4.63887
 11
83.7779
 21
-4.70927
  0
LINE
  8
0
 10
83.7779
 20
-4.70927
 11
84.1652
 21
-5.00874
  0
LINE
  8
0
 10
84.1652
 20
-5.00874
 11
84.3842
 21
-5.44658
  0
LINE
  8
0
 10
84.3842
 20
-5.44658
 11
84.3915
 21
-5.93607
  0
LINE
  8
0
 10
84.3915
 20
-5.93607
 11
84.1857
 21
-6.38026
  0
LINE
  8
0
 10
84.1857
 20
-6.38026
 11
83.8076
 21
-6.69118
  0
LINE
  8
0
 10
83.8076
 20
-6.69118
 11
83.332
 21
-6.80724
  0
LINE
  8
0
 10
83.332
 20
-6.80724
 11
83.1843
 21
-6.77586
  0
LINE
  8
0
 10
83.1843
 20
-6.77586
 11
83.1815
 21
-6.79916
  0
LINE
  8
0
 10
83.1815
 20
-6.79916
 11
77.8118
 21
-6.13985
  0
LINE
  8
0
 10
77.8118
 20
-6.13985
 11
77.8119
 21
-6.13911
  0
LINE
  8
0
 10
77.8119
 20
-6.13911
 11
75.5388
 21
-5.68535
  0
LINE
  8
0
 10
75.5388
 20
-5.68535
 11
74.5174
 21
-2.87912
  0
LINE
  8
0
 10
74.5174
 20
-2.87912
 11
72.8424
 21
-0.198486
  0
LINE
  8
0
 10
72.8424
 20
-0.198486
 11
70.7565
 21
1.96147
  0
LINE
  8
0
 10
70.7565
 20
1.96147
 11
70.7588
 21
1.98019
  0
LINE
  8
0
 10
70.7588
 20
1.98019
 11
64.8035
 21
2.71141
  0
LINE
  8
0
 10
64.8035
 20
2.71141
 11
64.8007
 21
2.6886
  0
LINE
  8
0
 10
64.8007
 20
2.6886
 11
64.6733
 21
2.72453
  0
LINE
  8
0
 10
64.6733
 20
2.72453
 11
63.5109
 21
2.58694
  0
LINE
  8
0
 10
63.5109
 20
2.58694
 11
62.4896
 21
2.015
  0
LINE
  8
0
 10
62.4896
 20
2.015
 11
61.7649
 21
1.09575
  0
LINE
  8
0
 10
61.7649
 20
1.09575
 11
61.4472
 21
-0.0308228
  0
LINE
  8
0
 10
61.4472
 20
-0.0308228
 11
61.5848
 21
-1.19325
  0
LINE
  8
0
 10
61.5848
 20
-1.19325
 11
62.1567
 21
-2.21455
  0
LINE
  8
0
 10
62.1567
 20
-2.21455
 11
63.076
 21
-2.93922
  0
LINE
  8
0
 10
63.076
 20
-2.93922
 11
64.0751
 21
-3.22102
  0
LINE
  8
0
 10
64.0751
 20
-3.22102
 11
64.0725
 21
-3.242
  0
LINE
  8
0
 10
64.0725
 20
-3.242
 11
69.3191
 21
-2.92189
  0
LINE
  8
0
 10
69.3191
 20
-2.92189
 11
69.4034
 21
-2.90132
  0
LINE
  8
0
 10
69.4034
 20
-2.90132
 11
69.4598
 21
-2.91331
  0
LINE
  8
0
 10
69.4598
 20
-2.91331
 11
69.544
 21
-2.90817
  0
LINE
  8
0
 10
69.544
 20
-2.90817
 11
69.5539
 21
-2.90939
  0
LINE
  8
0
 10
69.5539
 20
-2.90939
 11
69.5511
 21
-2.93269
  0
LINE
  8
0
 10
69.5511
 20
-2.93269
 11
69.8823
 21
-3.0031
  0
LINE
  8
0
 10
69.8823
 20
-3.0031
 11
70.2695
 21
-3.30257
  0
LINE
  8
0
 10
70.2695
 20
-3.30257
 11
70.4885
 21
-3.7404
  0
LINE
  8
0
 10
70.4885
 20
-3.7404
 11
70.4958
 21
-4.22989
  0
LINE
  8
0
 10
70.4958
 20
-4.22989
 11
70.2901
 21
-4.67409
  0
LINE
  8
0
 10
70.2901
 20
-4.67409
 11
69.9119
 21
-4.985
  0
LINE
  8
0
 10
69.9119
 20
-4.985
 11
69.4363
 21
-5.10107
  0
LINE
  8
0
 10
69.4363
 20
-5.10107
 11
69.2887
 21
-5.06969
  0
LINE
  8
0
 10
69.2887
 20
-5.06969
 11
69.2858
 21
-5.09299
  0
LINE
  8
0
 10
69.2858
 20
-5.09299
 11
63.9162
 21
-4.43369
  0
LINE
  8
0
 10
63.9162
 20
-4.43369
 11
63.9162
 21
-4.43294
  0
LINE
  8
0
 10
63.9162
 20
-4.43294
 11
61.6432
 21
-3.97917
  0
LINE
  8
0
 10
61.6432
 20
-3.97917
 11
60.6218
 21
-1.17296
  0
LINE
  8
0
 10
60.6218
 20
-1.17296
 11
58.9467
 21
1.50766
  0
LINE
  8
0
 10
58.9467
 20
1.50766
 11
56.8609
 21
3.66765
  0
LINE
  8
0
 10
56.8609
 20
3.66765
 11
56.8632
 21
3.68637
  0
LINE
  8
0
 10
56.8632
 20
3.68637
 11
50.9079
 21
4.41759
  0
LINE
  8
0
 10
50.9079
 20
4.41759
 11
50.9051
 21
4.39476
  0
LINE
  8
0
 10
50.9051
 20
4.39476
 11
50.7776
 21
4.43069
  0
LINE
  8
0
 10
50.7776
 20
4.43069
 11
49.6152
 21
4.29312
  0
LINE
  8
0
 10
49.6152
 20
4.29312
 11
48.5939
 21
3.72116
  0
LINE
  8
0
 10
48.5939
 20
3.72116
 11
47.8693
 21
2.80193
  0
LINE
  8
0
 10
47.8693
 20
2.80193
 11
47.5515
 21
1.67532
  0
LINE
  8
0
 10
47.5515
 20
1.67532
 11
47.6891
 21
0.512894
  0
LINE
  8
0
 10
47.6891
 20
0.512894
 11
48.2611
 21
-0.508377
  0
LINE
  8
0
 10
48.2611
 20
-0.508377
 11
49.1803
 21
-1.23305
  0
LINE
  8
0
 10
49.1803
 20
-1.23305
 11
50.1795
 21
-1.51485
  0
LINE
  8
0
 10
50.1795
 20
-1.51485
 11
50.1769
 21
-1.53584
  0
LINE
  8
0
 10
50.1769
 20
-1.53584
 11
55.4234
 21
-1.21573
  0
LINE
  8
0
 10
55.4234
 20
-1.21573
 11
55.5078
 21
-1.19514
  0
LINE
  8
0
 10
55.5078
 20
-1.19514
 11
55.5642
 21
-1.20714
  0
LINE
  8
0
 10
55.5642
 20
-1.20714
 11
55.6484
 21
-1.202
  0
LINE
  8
0
 10
55.6484
 20
-1.202
 11
55.6583
 21
-1.20322
  0
LINE
  8
0
 10
55.6583
 20
-1.20322
 11
55.6554
 21
-1.22653
  0
LINE
  8
0
 10
55.6554
 20
-1.22653
 11
55.9866
 21
-1.29692
  0
LINE
  8
0
 10
55.9866
 20
-1.29692
 11
56.3739
 21
-1.59639
  0
LINE
  8
0
 10
56.3739
 20
-1.59639
 11
56.5929
 21
-2.03424
  0
LINE
  8
0
 10
56.5929
 20
-2.03424
 11
56.6002
 21
-2.52373
  0
LINE
  8
0
 10
56.6002
 20
-2.52373
 11
56.3944
 21
-2.96793
  0
LINE
  8
0
 10
56.3944
 20
-2.96793
 11
56.0163
 21
-3.27884
  0
LINE
  8
0
 10
56.0163
 20
-3.27884
 11
55.5407
 21
-3.3949
  0
LINE
  8
0
 10
55.5407
 20
-3.3949
 11
55.393
 21
-3.36351
  0
LINE
  8
0
 10
55.393
 20
-3.36351
 11
55.3902
 21
-3.38683
  0
LINE
  8
0
 10
55.3902
 20
-3.38683
 11
50.0205
 21
-2.72751
  0
LINE
  8
0
 10
50.0205
 20
-2.72751
 11
50.0206
 21
-2.72676
  0
LINE
  8
0
 10
50.0206
 20
-2.72676
 11
42.2307
 21
-1.17172
  0
LINE
  8
0
 10
42.2307
 20
-1.17172
 11
42.2344
 21
-1.14201
  0
LINE
  8
0
 10
42.2344
 20
-1.14201
 11
41.353
 21
-1.02988
  0
LINE
  8
0
 10
41.353
 20
-1.02988
 11
38.4117
 21
-0.681747
  0
LINE
  8
0
 10
38.4117
 20
-0.681747
 11
35.4674
 21
-0.359299
  0
LINE
  8
0
 10
35.4674
 20
-0.359299
 11
32.5205
 21
-0.062561
  0
LINE
  8
0
 10
32.5205
 20
-0.062561
 11
29.571
 21
0.20845
  0
LINE
  8
0
 10
29.571
 20
0.20845
 11
26.6194
 21
0.453705
  0
LINE
  8
0
 10
26.6194
 20
0.453705
 11
23.6656
 21
0.673203
  0
LINE
  8
0
 10
23.6656
 20
0.673203
 11
20.7101
 21
0.866928
  0
LINE
  8
0
 10
20.7101
 20
0.866928
 11
17.753
 21
1.03484
  0
LINE
  8
0
 10
17.753
 20
1.03484
 11
14.7946
 21
1.17694
  0
LINE
  8
0
 10
14.7946
 20
1.17694
 11
11.835
 21
1.29323
  0
LINE
  8
0
 10
11.835
 20
1.29323
 11
8.87456
 21
1.38368
  0
LINE
  8
0
 10
8.87456
 20
1.38368
 11
5.91341
 21
1.44829
  0
LINE
  8
0
 10
5.91341
 20
1.44829
 11
2.95181
 21
1.48706
  0
LINE
  8
0
 10
2.95181
 20
1.48706
 11
0.00999451
 21
1.49989
  0
LINE
  8
0
 10
0.00999451
 20
1.49989
 11
0.00999451
 21
1.49998
  0
LINE
  8
0
 10
0.00999451
 20
1.49998
 11
0
 21
1.49994
  0
LINE
  8
0
 10
0
 20
1.49994
 11
-0.00999451
 21
1.49998
  0
LINE
  8
0
 10
-0.00999451
 20
1.49998
 11
-0.00999451
 21
1.49989
  0
LINE
  8
0
 10
-0.00999451
 20
1.49989
 11
-2.95181
 21
1.48706
  0
LINE
  8
0
 10
-2.95181
 20
1.48706
 11
-5.91341
 21
1.44829
  0
LINE
  8
0
 10
-5.91341
 20
1.44829
 11
-8.87456
 21
1.38368
  0
LINE
  8
0
 10
-8.87456
 20
1.38368
 11
-11.835
 21
1.29323
  0
LINE
  8
0
 10
-11.835
 20
1.29323
 11
-14.7946
 21
1.17694
  0
LINE
  8
0
 10
-14.7946
 20
1.17694
 11
-17.753
 21
1.03484
  0
LINE
  8
0
 10
-17.753
 20
1.03484
 11
-20.7101
 21
0.866928
  0
LINE
  8
0
 10
-20.7101
 20
0.866928
 11
-23.6656
 21
0.673203
  0
LINE
  8
0
 10
-23.6656
 20
0.673203
 11
-26.6194
 21
0.453705
  0
LINE
  8
0
 10
-26.6194
 20
0.453705
 11
-29.571
 21
0.20845
  0
LINE
  8
0
 10
-29.571
 20
0.20845
 11
-32.5205
 21
-0.062561
  0
LINE
  8
0
 10
-32.5205
 20
-0.062561
 11
-35.4674
 21
-0.359299
  0
LINE
  8
0
 10
-35.4674
 20
-0.359299
 11
-38.4117
 21
-0.681747
  0
LINE
  8
0
 10
-38.4117
 20
-0.681747
 11
-41.353
 21
-1.02988
  0
LINE
  8
0
 10
-41.353
 20
-1.02988
 11
-42.2344
 21
-1.14201
  0
LINE
  8
0
 10
-42.2344
 20
-1.14201
 11
-42.2307
 21
-1.17172
  0
LINE
  8
0
 10
-42.2307
 20
-1.17172
 11
-50.0206
 21
-2.72676
  0
LINE
  8
0
 10
-50.0206
 20
-2.72676
 11
-50.0205
 21
-2.72751
  0
LINE
  8
0
 10
-50.0205
 20
-2.72751
 11
-55.3902
 21
-3.38683
  0
LINE
  8
0
 10
-55.3902
 20
-3.38683
 11
-55.393
 21
-3.36351
  0
LINE
  8
0
 10
-55.393
 20
-3.36351
 11
-55.5407
 21
-3.3949
  0
LINE
  8
0
 10
-55.5407
 20
-3.3949
 11
-56.0163
 21
-3.27884
  0
LINE
  8
0
 10
-56.0163
 20
-3.27884
 11
-56.3944
 21
-2.96793
  0
LINE
  8
0
 10
-56.3944
 20
-2.96793
 11
-56.6002
 21
-2.52373
  0
LINE
  8
0
 10
-56.6002
 20
-2.52373
 11
-56.5929
 21
-2.03424
  0
LINE
  8
0
 10
-56.5929
 20
-2.03424
 11
-56.3739
 21
-1.59639
  0
LINE
  8
0
 10
-56.3739
 20
-1.59639
 11
-55.9866
 21
-1.29692
  0
LINE
  8
0
 10
-55.9866
 20
-1.29692
 11
-55.6554
 21
-1.22653
  0
LINE
  8
0
 10
-55.6554
 20
-1.22653
 11
-55.6583
 21
-1.20322
  0
LINE
  8
0
 10
-55.6583
 20
-1.20322
 11
-55.6484
 21
-1.202
  0
LINE
  8
0
 10
-55.6484
 20
-1.202
 11
-55.5642
 21
-1.20714
  0
LINE
  8
0
 10
-55.5642
 20
-1.20714
 11
-55.5078
 21
-1.19514
  0
LINE
  8
0
 10
-55.5078
 20
-1.19514
 11
-55.4234
 21
-1.21573
  0
LINE
  8
0
 10
-55.4234
 20
-1.21573
 11
-50.1769
 21
-1.53584
  0
LINE
  8
0
 10
-50.1769
 20
-1.53584
 11
-50.1795
 21
-1.51485
  0
LINE
  8
0
 10
-50.1795
 20
-1.51485
 11
-49.1803
 21
-1.23305
  0
LINE
  8
0
 10
-49.1803
 20
-1.23305
 11
-48.2611
 21
-0.508377
  0
LINE
  8
0
 10
-48.2611
 20
-0.508377
 11
-47.6891
 21
0.512894
  0
LINE
  8
0
 10
-47.6891
 20
0.512894
 11
-47.5515
 21
1.67532
  0
LINE
  8
0
 10
-47.5515
 20
1.67532
 11
-47.8693
 21
2.80193
  0
LINE
  8
0
 10
-47.8693
 20
2.80193
 11
-48.5939
 21
3.72116
  0
LINE
  8
0
 10
-48.5939
 20
3.72116
 11
-49.6152
 21
4.29312
  0
LINE
  8
0
 10
-49.6152
 20
4.29312
 11
-50.7776
 21
4.43069
  0
LINE
  8
0
 10
-50.7776
 20
4.43069
 11
-50.9051
 21
4.39476
  0
LINE
  8
0
 10
-50.9051
 20
4.39476
 11
-50.9079
 21
4.41759
  0
LINE
  8
0
 10
-50.9079
 20
4.41759
 11
-56.8632
 21
3.68637
  0
LINE
  8
0
 10
-56.8632
 20
3.68637
 11
-56.8609
 21
3.66765
  0
LINE
  8
0
 10
-56.8609
 20
3.66765
 11
-58.9467
 21
1.50766
  0
LINE
  8
0
 10
-58.9467
 20
1.50766
 11
-60.6218
 21
-1.17296
  0
LINE
  8
0
 10
-60.6218
 20
-1.17296
 11
-61.6432
 21
-3.97917
  0
LINE
  8
0
 10
-61.6432
 20
-3.97917
 11
-63.9162
 21
-4.43294
  0
LINE
  8
0
 10
-63.9162
 20
-4.43294
 11
-63.9162
 21
-4.43369
  0
LINE
  8
0
 10
-63.9162
 20
-4.43369
 11
-69.2858
 21
-5.09299
  0
LINE
  8
0
 10
-69.2858
 20
-5.09299
 11
-69.2887
 21
-5.06969
  0
LINE
  8
0
 10
-69.2887
 20
-5.06969
 11
-69.4363
 21
-5.10107
  0
LINE
  8
0
 10
-69.4363
 20
-5.10107
 11
-69.9119
 21
-4.985
  0
LINE
  8
0
 10
-69.9119
 20
-4.985
 11
-70.2901
 21
-4.67409
  0
LINE
  8
0
 10
-70.2901
 20
-4.67409
 11
-70.4958
 21
-4.22989
  0
LINE
  8
0
 10
-70.4958
 20
-4.22989
 11
-70.4885
 21
-3.7404
  0
LINE
  8
0
 10
-70.4885
 20
-3.7404
 11
-70.2695
 21
-3.30257
  0
LINE
  8
0
 10
-70.2695
 20
-3.30257
 11
-69.8823
 21
-3.0031
  0
LINE
  8
0
 10
-69.8823
 20
-3.0031
 11
-69.5511
 21
-2.93269
  0
LINE
  8
0
 10
-69.5511
 20
-2.93269
 11
-69.5539
 21
-2.90939
  0
LINE
  8
0
 10
-69.5539
 20
-2.90939
 11
-69.544
 21
-2.90817
  0
LINE
  8
0
 10
-69.544
 20
-2.90817
 11
-69.4598
 21
-2.91331
  0
LINE
  8
0
 10
-69.4598
 20
-2.91331
 11
-69.4034
 21
-2.90132
  0
LINE
  8
0
 10
-69.4034
 20
-2.90132
 11
-69.3191
 21
-2.92189
  0
LINE
  8
0
 10
-69.3191
 20
-2.92189
 11
-64.0725
 21
-3.242
  0
LINE
  8
0
 10
-64.0725
 20
-3.242
 11
-64.0751
 21
-3.22102
  0
LINE
  8
0
 10
-64.0751
 20
-3.22102
 11
-63.076
 21
-2.93922
  0
LINE
  8
0
 10
-63.076
 20
-2.93922
 11
-62.1567
 21
-2.21455
  0
LINE
  8
0
 10
-62.1567
 20
-2.21455
 11
-61.5848
 21
-1.19325
  0
LINE
  8
0
 10
-61.5848
 20
-1.19325
 11
-61.4472
 21
-0.0308228
  0
LINE
  8
0
 10
-61.4472
 20
-0.0308228
 11
-61.7649
 21
1.09575
  0
LINE
  8
0
 10
-61.7649
 20
1.09575
 11
-62.4896
 21
2.015
  0
LINE
  8
0
 10
-62.4896
 20
2.015
 11
-63.5109
 21
2.58694
  0
LINE
  8
0
 10
-63.5109
 20
2.58694
 11
-64.6733
 21
2.72453
  0
LINE
  8
0
 10
-64.6733
 20
2.72453
 11
-64.8007
 21
2.6886
  0
LINE
  8
0
 10
-64.8007
 20
2.6886
 11
-64.8035
 21
2.71141
  0
LINE
  8
0
 10
-64.8035
 20
2.71141
 11
-70.7588
 21
1.98019
  0
LINE
  8
0
 10
-70.7588
 20
1.98019
 11
-70.7565
 21
1.96147
  0
LINE
  8
0
 10
-70.7565
 20
1.96147
 11
-72.8424
 21
-0.198486
  0
LINE
  8
0
 10
-72.8424
 20
-0.198486
 11
-74.5174
 21
-2.87912
  0
LINE
  8
0
 10
-74.5174
 20
-2.87912
 11
-75.5388
 21
-5.68535
  0
LINE
  8
0
 10
-75.5388
 20
-5.68535
 11
-77.8119
 21
-6.13911
  0
LINE
  8
0
 10
-77.8119
 20
-6.13911
 11
-77.8118
 21
-6.13985
  0
LINE
  8
0
 10
-77.8118
 20
-6.13985
 11
-83.1815
 21
-6.79916
  0
LINE
  8
0
 10
-83.1815
 20
-6.79916
 11
-83.1843
 21
-6.77586
  0
LINE
  8
0
 10
-83.1843
 20
-6.77586
 11
-83.332
 21
-6.80724
  0
LINE
  8
0
 10
-83.332
 20
-6.80724
 11
-83.8076
 21
-6.69118
  0
LINE
  8
0
 10
-83.8076
 20
-6.69118
 11
-84.1857
 21
-6.38026
  0
LINE
  8
0
 10
-84.1857
 20
-6.38026
 11
-84.3915
 21
-5.93607
  0
LINE
  8
0
 10
-84.3915
 20
-5.93607
 11
-84.3842
 21
-5.44658
  0
LINE
  8
0
 10
-84.3842
 20
-5.44658
 11
-84.1652
 21
-5.00874
  0
LINE
  8
0
 10
-84.1652
 20
-5.00874
 11
-83.7779
 21
-4.70927
  0
LINE
  8
0
 10
-83.7779
 20
-4.70927
 11
-83.4467
 21
-4.63887
  0
LINE
  8
0
 10
-83.4467
 20
-4.63887
 11
-83.4496
 21
-4.61557
  0
LINE
  8
0
 10
-83.4496
 20
-4.61557
 11
-83.4397
 21
-4.61435
  0
LINE
  8
0
 10
-83.4397
 20
-4.61435
 11
-83.3555
 21
-4.61948
  0
LINE
  8
0
 10
-83.3555
 20
-4.61948
 11
-83.2991
 21
-4.60748
  0
LINE
  8
0
 10
-83.2991
 20
-4.60748
 11
-83.2147
 21
-4.62807
  0
LINE
  8
0
 10
-83.2147
 20
-4.62807
 11
-77.9682
 21
-4.94818
  0
LINE
  8
0
 10
-77.9682
 20
-4.94818
 11
-77.9708
 21
-4.92719
  0
LINE
  8
0
 10
-77.9708
 20
-4.92719
 11
-76.9716
 21
-4.6454
  0
LINE
  8
0
 10
-76.9716
 20
-4.6454
 11
-76.0524
 21
-3.92072
  0
LINE
  8
0
 10
-76.0524
 20
-3.92072
 11
-75.4804
 21
-2.89943
  0
LINE
  8
0
 10
-75.4804
 20
-2.89943
 11
-75.3428
 21
-1.737
  0
LINE
  8
0
 10
-75.3428
 20
-1.737
 11
-75.6606
 21
-0.610413
  0
LINE
  8
0
 10
-75.6606
 20
-0.610413
 11
-76.3852
 21
0.308823
  0
LINE
  8
0
 10
-76.3852
 20
0.308823
 11
-77.4065
 21
0.880783
  0
LINE
  8
0
 10
-77.4065
 20
0.880783
 11
-78.569
 21
1.01836
  0
LINE
  8
0
 10
-78.569
 20
1.01836
 11
-78.6964
 21
0.982422
  0
LINE
  8
0
 10
-78.6964
 20
0.982422
 11
-78.6992
 21
1.00525
  0
LINE
  8
0
 10
-78.6992
 20
1.00525
 11
-84.6544
 21
0.274033
  0
LINE
  8
0
 10
-84.6544
 20
0.274033
 11
-84.6522
 21
0.25531
  0
LINE
  8
0
 10
-84.6522
 20
0.25531
 11
-86.738
 21
-1.90466
  0
LINE
  8
0
 10
-86.738
 20
-1.90466
 11
-88.4131
 21
-4.5853
  0
LINE
  8
0
 10
-88.4131
 20
-4.5853
 11
-89.4942
 21
-7.5556
  0
LINE
  8
0
 10
-89.4942
 20
-7.5556
 11
-89.9341
 21
-10.6858
  0
LINE
  8
0
 10
-89.9341
 20
-10.6858
 11
-89.7703
 21
-13.0286
  0
LINE
  8
0
 10
-89.7703
 20
-13.0286
 11
-89.7713
 21
-13.0287
  0
LINE
  8
0
 10
-89.7713
 20
-13.0287
 11
-89.7696
 21
-13.0386
  0
LINE
  8
0
 10
-89.7696
 20
-13.0386
 11
-89.7689
 21
-13.0486
  0
LINE
  8
0
 10
-89.7689
 20
-13.0486
 11
-89.7678
 21
-13.0484
  0
LINE
  8
0
 10
-89.7678
 20
-13.0484
 11
-89.36
 21
-15.3613
  0
LINE
  8
0
 10
-89.36
 20
-15.3613
 11
-88.1759
 21
-18.292
  0
LINE
  8
0
 10
-88.1759
 20
-18.292
 11
-86.4083
 21
-20.9126
  0
LINE
  8
0
 10
-86.4083
 20
-20.9126
 11
-84.1346
 21
-23.1083
  0
LINE
  8
0
 10
-84.1346
 20
-23.1083
 11
-81.5881
 21
-24.6995
  0
LINE
  8
0
 10
-81.5881
 20
-24.6995
 11
-81.5858
 21
-24.7183
  0
LINE
  8
0
 10
-81.5858
 20
-24.7183
 11
-75.6305
 21
-23.987
  0
LINE
  8
0
 10
-75.6305
 20
-23.987
 11
-75.6333
 21
-23.9642
  0
LINE
  8
0
 10
-75.6333
 20
-23.9642
 11
-75.501
 21
-23.9683
  0
LINE
  8
0
 10
-75.501
 20
-23.9683
 11
-74.4064
 21
-23.5536
  0
LINE
  8
0
 10
-74.4064
 20
-23.5536
 11
-73.5538
 21
-22.7515
  0
LINE
  8
0
 10
-73.5538
 20
-22.7515
 11
-73.073
 21
-21.6843
  0
LINE
  8
0
 10
-73.073
 20
-21.6843
 11
-73.0373
 21
-20.5143
  0
LINE
  8
0
 10
-73.0373
 20
-20.5143
 11
-73.452
 21
-19.4196
  0
LINE
  8
0
 10
-73.452
 20
-19.4196
 11
-74.254
 21
-18.5671
  0
LINE
  8
0
 10
-74.254
 20
-18.5671
 11
-75.3213
 21
-18.0863
  0
LINE
  8
0
 10
-75.3213
 20
-18.0863
 11
-76.3589
 21
-18.0546
  0
LINE
  8
0
 10
-76.3589
 20
-18.0546
 11
-76.3615
 21
-18.0336
  0
LINE
  8
0
 10
-76.3615
 20
-18.0336
 11
-81.3748
 21
-19.6135
  0
LINE
  8
0
 10
-81.3748
 20
-19.6135
 11
-81.4516
 21
-19.6538
  0
LINE
  8
0
 10
-81.4516
 20
-19.6538
 11
-81.5093
 21
-19.6559
  0
LINE
  8
0
 10
-81.5093
 20
-19.6559
 11
-81.5897
 21
-19.6812
  0
LINE
  8
0
 10
-81.5897
 20
-19.6812
 11
-81.5996
 21
-19.6824
  0
LINE
  8
0
 10
-81.5996
 20
-19.6824
 11
-81.6025
 21
-19.6591
  0
LINE
  8
0
 10
-81.6025
 20
-19.6591
 11
-81.9409
 21
-19.6709
  0
LINE
  8
0
 10
-81.9409
 20
-19.6709
 11
-82.3891
 21
-19.474
  0
LINE
  8
0
 10
-82.3891
 20
-19.474
 11
-82.7075
 21
-19.1022
  0
LINE
  8
0
 10
-82.7075
 20
-19.1022
 11
-82.833
 21
-18.629
  0
LINE
  8
0
 10
-82.833
 20
-18.629
 11
-82.7408
 21
-18.1482
  0
LINE
  8
0
 10
-82.7408
 20
-18.1482
 11
-82.4491
 21
-17.7551
  0
LINE
  8
0
 10
-82.4491
 20
-17.7551
 11
-82.0157
 21
-17.5274
  0
LINE
  8
0
 10
-82.0157
 20
-17.5274
 11
-81.8649
 21
-17.5221
  0
LINE
  8
0
 10
-81.8649
 20
-17.5221
 11
-81.8677
 21
-17.4988
  0
LINE
  8
0
 10
-81.8677
 20
-17.4988
 11
-76.498
 21
-16.8395
  0
LINE
  8
0
 10
-76.498
 20
-16.8395
 11
-76.498
 21
-16.8402
  0
LINE
  8
0
 10
-76.498
 20
-16.8402
 11
-74.1826
 21
-16.7306
  0
LINE
  8
0
 10
-74.1826
 20
-16.7306
 11
-72.5127
 21
-19.2064
  0
LINE
  8
0
 10
-72.5127
 20
-19.2064
 11
-70.2389
 21
-21.4022
  0
LINE
  8
0
 10
-70.2389
 20
-21.4022
 11
-67.6924
 21
-22.9934
  0
LINE
  8
0
 10
-67.6924
 20
-22.9934
 11
-67.6901
 21
-23.0121
  0
LINE
  8
0
 10
-67.6901
 20
-23.0121
 11
-61.7349
 21
-22.2809
  0
LINE
  8
0
 10
-61.7349
 20
-22.2809
 11
-61.7377
 21
-22.2581
  0
LINE
  8
0
 10
-61.7377
 20
-22.2581
 11
-61.6053
 21
-22.2621
  0
LINE
  8
0
 10
-61.6053
 20
-22.2621
 11
-60.5107
 21
-21.8474
  0
LINE
  8
0
 10
-60.5107
 20
-21.8474
 11
-59.6581
 21
-21.0453
  0
LINE
  8
0
 10
-59.6581
 20
-21.0453
 11
-59.1774
 21
-19.9781
  0
LINE
  8
0
 10
-59.1774
 20
-19.9781
 11
-59.1416
 21
-18.8081
  0
LINE
  8
0
 10
-59.1416
 20
-18.8081
 11
-59.5563
 21
-17.7135
  0
LINE
  8
0
 10
-59.5563
 20
-17.7135
 11
-60.3584
 21
-16.8609
  0
LINE
  8
0
 10
-60.3584
 20
-16.8609
 11
-61.4256
 21
-16.3801
  0
LINE
  8
0
 10
-61.4256
 20
-16.3801
 11
-62.4633
 21
-16.3484
  0
LINE
  8
0
 10
-62.4633
 20
-16.3484
 11
-62.4659
 21
-16.3274
  0
LINE
  8
0
 10
-62.4659
 20
-16.3274
 11
-67.4791
 21
-17.9073
  0
LINE
  8
0
 10
-67.4791
 20
-17.9073
 11
-67.556
 21
-17.9477
  0
LINE
  8
0
 10
-67.556
 20
-17.9477
 11
-67.6136
 21
-17.9497
  0
LINE
  8
0
 10
-67.6136
 20
-17.9497
 11
-67.694
 21
-17.975
  0
LINE
  8
0
 10
-67.694
 20
-17.975
 11
-67.704
 21
-17.9762
  0
LINE
  8
0
 10
-67.704
 20
-17.9762
 11
-67.7068
 21
-17.9529
  0
LINE
  8
0
 10
-67.7068
 20
-17.9529
 11
-68.0452
 21
-17.9648
  0
LINE
  8
0
 10
-68.0452
 20
-17.9648
 11
-68.4934
 21
-17.7679
  0
LINE
  8
0
 10
-68.4934
 20
-17.7679
 11
-68.8118
 21
-17.396
  0
LINE
  8
0
 10
-68.8118
 20
-17.396
 11
-68.9373
 21
-16.9228
  0
LINE
  8
0
 10
-68.9373
 20
-16.9228
 11
-68.8451
 21
-16.442
  0
LINE
  8
0
 10
-68.8451
 20
-16.442
 11
-68.5535
 21
-16.0489
  0
LINE
  8
0
 10
-68.5535
 20
-16.0489
 11
-68.1201
 21
-15.8212
  0
LINE
  8
0
 10
-68.1201
 20
-15.8212
 11
-67.9692
 21
-15.8159
  0
LINE
  8
0
 10
-67.9692
 20
-15.8159
 11
-67.9721
 21
-15.7926
  0
LINE
  8
0
 10
-67.9721
 20
-15.7926
 11
-62.6024
 21
-15.1333
  0
LINE
  8
0
 10
-62.6024
 20
-15.1333
 11
-62.6023
 21
-15.1341
  0
LINE
  8
0
 10
-62.6023
 20
-15.1341
 11
-60.287
 21
-15.0244
  0
LINE
  8
0
 10
-60.287
 20
-15.0244
 11
-58.6171
 21
-17.5002
  0
LINE
  8
0
 10
-58.6171
 20
-17.5002
 11
-56.3432
 21
-19.696
  0
LINE
  8
0
 10
-56.3432
 20
-19.696
 11
-53.7968
 21
-21.2872
  0
LINE
  8
0
 10
-53.7968
 20
-21.2872
 11
-53.7945
 21
-21.3059
  0
LINE
  8
0
 10
-53.7945
 20
-21.3059
 11
-47.8392
 21
-20.5747
  0
LINE
  8
0
 10
-47.8392
 20
-20.5747
 11
-47.842
 21
-20.5519
  0
LINE
  8
0
 10
-47.842
 20
-20.5519
 11
-47.7097
 21
-20.5559
  0
LINE
  8
0
 10
-47.7097
 20
-20.5559
 11
-46.6151
 21
-20.1412
  0
LINE
  8
0
 10
-46.6151
 20
-20.1412
 11
-45.7625
 21
-19.3392
  0
LINE
  8
0
 10
-45.7625
 20
-19.3392
 11
-45.2817
 21
-18.2719
  0
LINE
  8
0
 10
-45.2817
 20
-18.2719
 11
-45.246
 21
-17.1019
  0
LINE
  8
0
 10
-45.246
 20
-17.1019
 11
-45.6607
 21
-16.0073
  0
LINE
  8
0
 10
-45.6607
 20
-16.0073
 11
-46.4627
 21
-15.1547
  0
LINE
  8
0
 10
-46.4627
 20
-15.1547
 11
-47.53
 21
-14.674
  0
LINE
  8
0
 10
-47.53
 20
-14.674
 11
-48.5676
 21
-14.6423
  0
LINE
  8
0
 10
-48.5676
 20
-14.6423
 11
-48.5702
 21
-14.6213
  0
LINE
  8
0
 10
-48.5702
 20
-14.6213
 11
-53.5835
 21
-16.2011
  0
LINE
  8
0
 10
-53.5835
 20
-16.2011
 11
-53.6603
 21
-16.2415
  0
LINE
  8
0
 10
-53.6603
 20
-16.2415
 11
-53.718
 21
-16.2435
  0
LINE
  8
0
 10
-53.718
 20
-16.2435
 11
-53.7984
 21
-16.2689
  0
LINE
  8
0
 10
-53.7984
 20
-16.2689
 11
-53.8083
 21
-16.2701
  0
LINE
  8
0
 10
-53.8083
 20
-16.2701
 11
-53.8112
 21
-16.2468
  0
LINE
  8
0
 10
-53.8112
 20
-16.2468
 11
-54.1496
 21
-16.2586
  0
LINE
  8
0
 10
-54.1496
 20
-16.2586
 11
-54.5978
 21
-16.0617
  0
LINE
  8
0
 10
-54.5978
 20
-16.0617
 11
-54.9162
 21
-15.6898
  0
LINE
  8
0
 10
-54.9162
 20
-15.6898
 11
-55.0417
 21
-15.2167
  0
LINE
  8
0
 10
-55.0417
 20
-15.2167
 11
-54.9495
 21
-14.7359
  0
LINE
  8
0
 10
-54.9495
 20
-14.7359
 11
-54.6578
 21
-14.3427
  0
LINE
  8
0
 10
-54.6578
 20
-14.3427
 11
-54.2244
 21
-14.1151
  0
LINE
  8
0
 10
-54.2244
 20
-14.1151
 11
-54.0736
 21
-14.1098
  0
LINE
  8
0
 10
-54.0736
 20
-14.1098
 11
-54.0764
 21
-14.0865
  0
LINE
  8
0
 10
-54.0764
 20
-14.0865
 11
-48.7068
 21
-13.4272
  0
LINE
  8
0
 10
-48.7068
 20
-13.4272
 11
-48.7067
 21
-13.4279
  0
LINE
  8
0
 10
-48.7067
 20
-13.4279
 11
-40.7032
 21
-13.049
  0
LINE
  8
0
 10
-40.7032
 20
-13.049
 11
-40.6933
 21
-13.0477
  0
LINE
  8
0
 10
-40.6933
 20
-13.0477
 11
-40.6939
 21
-13.0426
  0
LINE
  8
0
 10
-40.6939
 20
-13.0426
 11
-39.8905
 21
-12.9404
  0
LINE
  8
0
 10
-39.8905
 20
-12.9404
 11
-37.0532
 21
-12.6046
  0
LINE
  8
0
 10
-37.0532
 20
-12.6046
 11
-34.2131
 21
-12.2936
  0
LINE
  8
0
 10
-34.2131
 20
-12.2936
 11
-31.3703
 21
-12.0073
  0
LINE
  8
0
 10
-31.3703
 20
-12.0073
 11
-28.5252
 21
-11.7459
  0
LINE
  8
0
 10
-28.5252
 20
-11.7459
 11
-25.6778
 21
-11.5093
  0
LINE
  8
0
 10
-25.6778
 20
-11.5093
 11
-22.8286
 21
-11.2975
  0
LINE
  8
0
 10
-22.8286
 20
-11.2975
 11
-19.9775
 21
-11.1107
  0
LINE
  8
0
 10
-19.9775
 20
-11.1107
 11
-17.125
 21
-10.9487
  0
LINE
  8
0
 10
-17.125
 20
-10.9487
 11
-14.2712
 21
-10.8116
  0
LINE
  8
0
 10
-14.2712
 20
-10.8116
 11
-11.4162
 21
-10.6994
  0
LINE
  8
0
 10
-11.4162
 20
-10.6994
 11
-8.56042
 21
-10.6122
  0
LINE
  8
0
 10
-8.56042
 20
-10.6122
 11
-5.70398
 21
-10.5499
  0
LINE
  8
0
 10
-5.70398
 20
-10.5499
 11
-2.84709
 21
-10.5125
  0
LINE
  8
0
 10
-2.84709
 20
-10.5125
 11
0
 21
-10.5
  0
LINE
  8
0
 10
0
 20
-10.5
 11
2.84709
 21
-10.5125
  0
LINE
  8
0
 10
2.84709
 20
-10.5125
 11
5.70398
 21
-10.5499
  0
LINE
  8
0
 10
5.70398
 20
-10.5499
 11
8.56042
 21
-10.6122
  0
LINE
  8
0
 10
8.56042
 20
-10.6122
 11
11.4162
 21
-10.6994
  0
LINE
  8
0
 10
11.4162
 20
-10.6994
 11
14.2712
 21
-10.8116
  0
LINE
  8
0
 10
14.2712
 20
-10.8116
 11
17.125
 21
-10.9487
  0
LINE
  8
0
 10
17.125
 20
-10.9487
 11
19.9775
 21
-11.1107
  0
LINE
  8
0
 10
19.9775
 20
-11.1107
 11
22.8286
 21
-11.2975
  0
LINE
  8
0
 10
22.8286
 20
-11.2975
 11
25.6778
 21
-11.5093
  0
LINE
  8
0
 10
25.6778
 20
-11.5093
 11
28.5252
 21
-11.7459
  0
LINE
  8
0
 10
28.5252
 20
-11.7459
 11
31.3703
 21
-12.0073
  0
LINE
  8
0
 10
31.3703
 20
-12.0073
 11
34.2131
 21
-12.2936
  0
LINE
  8
0
 10
34.2131
 20
-12.2936
 11
37.0532
 21
-12.6046
  0
LINE
  8
0
 10
37.0532
 20
-12.6046
 11
39.8905
 21
-12.9404
  0
LINE
  8
0
 10
39.8905
 20
-12.9404
 11
40.6939
 21
-13.0426
  0
LINE
  8
0
 10
40.6939
 20
-13.0426
 11
40.6933
 21
-13.0477
  0
LINE
  8
0
 10
40.6933
 20
-13.0477
 11
40.7032
 21
-13.049
  0
LINE
  8
0
 10
40.7032
 20
-13.049
 11
48.7067
 21
-13.4279
  0
LINE
  8
0
 10
48.7067
 20
-13.4279
 11
48.7068
 21
-13.4272
  0
LINE
  8
0
 10
48.7068
 20
-13.4272
 11
54.0764
 21
-14.0865
  0
LINE
  8
0
 10
54.0764
 20
-14.0865
 11
54.0736
 21
-14.1098
  0
LINE
  8
0
 10
54.0736
 20
-14.1098
 11
54.2244
 21
-14.1151
  0
LINE
  8
0
 10
54.2244
 20
-14.1151
 11
54.6578
 21
-14.3427
  0
LINE
  8
0
 10
54.6578
 20
-14.3427
 11
54.9495
 21
-14.7359
  0
LINE
  8
0
 10
54.9495
 20
-14.7359
 11
55.0417
 21
-15.2167
  0
LINE
  8
0
 10
55.0417
 20
-15.2167
 11
54.9162
 21
-15.6898
  0
LINE
  8
0
 10
54.9162
 20
-15.6898
 11
54.5978
 21
-16.0617
  0
LINE
  8
0
 10
54.5978
 20
-16.0617
 11
54.1496
 21
-16.2586
  0
LINE
  8
0
 10
54.1496
 20
-16.2586
 11
53.8112
 21
-16.2468
  0
LINE
  8
0
 10
53.8112
 20
-16.2468
 11
53.8083
 21
-16.2701
  0
LINE
  8
0
 10
53.8083
 20
-16.2701
 11
53.7984
 21
-16.2689
  0
LINE
  8
0
 10
53.7984
 20
-16.2689
 11
53.718
 21
-16.2435
  0
LINE
  8
0
 10
53.718
 20
-16.2435
 11
53.6603
 21
-16.2415
  0
LINE
  8
0
 10
53.6603
 20
-16.2415
 11
53.5835
 21
-16.2011
  0
LINE
  8
0
 10
53.5835
 20
-16.2011
 11
48.5702
 21
-14.6213
  0
LINE
  8
0
 10
48.5702
 20
-14.6213
 11
48.5676
 21
-14.6423
  0
LINE
  8
0
 10
48.5676
 20
-14.6423
 11
47.53
 21
-14.674
  0
LINE
  8
0
 10
47.53
 20
-14.674
 11
46.4627
 21
-15.1547
  0
LINE
  8
0
 10
46.4627
 20
-15.1547
 11
45.6607
 21
-16.0073
  0
LINE
  8
0
 10
45.6607
 20
-16.0073
 11
45.246
 21
-17.1019
  0
LINE
  8
0
 10
45.246
 20
-17.1019
 11
45.2817
 21
-18.2719
  0
LINE
  8
0
 10
45.2817
 20
-18.2719
 11
45.7625
 21
-19.3392
  0
LINE
  8
0
 10
45.7625
 20
-19.3392
 11
46.6151
 21
-20.1412
  0
LINE
  8
0
 10
46.6151
 20
-20.1412
 11
47.7097
 21
-20.5559
  0
LINE
  8
0
 10
47.7097
 20
-20.5559
 11
47.842
 21
-20.5519
  0
LINE
  8
0
 10
47.842
 20
-20.5519
 11
47.8392
 21
-20.5747
  0
LINE
  8
0
 10
47.8392
 20
-20.5747
 11
53.7945
 21
-21.3059
  0
LINE
  8
0
 10
53.7945
 20
-21.3059
 11
53.7968
 21
-21.2872
  0
LINE
  8
0
 10
53.7968
 20
-21.2872
 11
56.3432
 21
-19.696
  0
LINE
  8
0
 10
56.3432
 20
-19.696
 11
58.6171
 21
-17.5002
  0
LINE
  8
0
 10
58.6171
 20
-17.5002
 11
60.287
 21
-15.0244
  0
LINE
  8
0
 10
60.287
 20
-15.0244
 11
62.6023
 21
-15.1341
  0
LINE
  8
0
 10
62.6023
 20
-15.1341
 11
62.6024
 21
-15.1333
  0
LINE
  8
0
 10
62.6024
 20
-15.1333
 11
67.9721
 21
-15.7926
  0
LINE
  8
0
 10
67.9721
 20
-15.7926
 11
67.9692
 21
-15.8159
  0
LINE
  8
0
 10
67.9692
 20
-15.8159
 11
68.1201
 21
-15.8212
  0
LINE
  8
0
 10
68.1201
 20
-15.8212
 11
68.5535
 21
-16.0489
  0
LINE
  8
0
 10
68.5535
 20
-16.0489
 11
68.8451
 21
-16.442
  0
LINE
  8
0
 10
68.8451
 20
-16.442
 11
68.9373
 21
-16.9228
  0
LINE
  8
0
 10
68.9373
 20
-16.9228
 11
68.8118
 21
-17.396
  0
LINE
  8
0
 10
68.8118
 20
-17.396
 11
68.4934
 21
-17.7679
  0
LINE
  8
0
 10
68.4934
 20
-17.7679
 11
68.0452
 21
-17.9648
  0
LINE
  8
0
 10
68.0452
 20
-17.9648
 11
67.7068
 21
-17.9529
  0
LINE
  8
0
 10
67.7068
 20
-17.9529
 11
67.704
 21
-17.9762
  0
LINE
  8
0
 10
67.704
 20
-17.9762
 11
67.694
 21
-17.975
  0
LINE
  8
0
 10
67.694
 20
-17.975
 11
67.6136
 21
-17.9497
  0
LINE
  8
0
 10
67.6136
 20
-17.9497
 11
67.556
 21
-17.9477
  0
LINE
  8
0
 10
67.556
 20
-17.9477
 11
67.4791
 21
-17.9073
  0
LINE
  8
0
 10
67.4791
 20
-17.9073
 11
62.4659
 21
-16.3274
  0
LINE
  8
0
 10
62.4659
 20
-16.3274
 11
62.4633
 21
-16.3484
  0
LINE
  8
0
 10
62.4633
 20
-16.3484
 11
61.4256
 21
-16.3801
  0
LINE
  8
0
 10
61.4256
 20
-16.3801
 11
60.3584
 21
-16.8609
  0
LINE
  8
0
 10
60.3584
 20
-16.8609
 11
59.5563
 21
-17.7135
  0
LINE
  8
0
 10
59.5563
 20
-17.7135
 11
59.1416
 21
-18.8081
  0
LINE
  8
0
 10
59.1416
 20
-18.8081
 11
59.1774
 21
-19.9781
  0
LINE
  8
0
 10
59.1774
 20
-19.9781
 11
59.6581
 21
-21.0453
  0
LINE
  8
0
 10
59.6581
 20
-21.0453
 11
60.5107
 21
-21.8474
  0
LINE
  8
0
 10
60.5107
 20
-21.8474
 11
61.6053
 21
-22.2621
  0
LINE
  8
0
 10
61.6053
 20
-22.2621
 11
61.7377
 21
-22.2581
  0
LINE
  8
0
 10
61.7377
 20
-22.2581
 11
61.7349
 21
-22.2809
  0
LINE
  8
0
 10
61.7349
 20
-22.2809
 11
67.6901
 21
-23.0121
  0
LINE
  8
0
 10
67.6901
 20
-23.0121
 11
67.6924
 21
-22.9934
  0
LINE
  8
0
 10
67.6924
 20
-22.9934
 11
70.2389
 21
-21.4022
  0
LINE
  8
0
 10
70.2389
 20
-21.4022
 11
72.5127
 21
-19.2064
  0
LINE
  8
0
 10
72.5127
 20
-19.2064
 11
74.1826
 21
-16.7306
  0
LINE
  8
0
 10
74.1826
 20
-16.7306
 11
76.498
 21
-16.8402
  0
LINE
  8
0
 10
76.498
 20
-16.8402
 11
76.498
 21
-16.8395
  0
LINE
  8
0
 10
76.498
 20
-16.8395
 11
81.8677
 21
-17.4988
  0
LINE
  8
0
 10
81.8677
 20
-17.4988
 11
81.8649
 21
-17.5221
  0
LINE
  8
0
 10
81.8649
 20
-17.5221
 11
82.0157
 21
-17.5274
  0
LINE
  8
0
 10
82.0157
 20
-17.5274
 11
82.4491
 21
-17.7551
  0
LINE
  8
0
 10
82.4491
 20
-17.7551
 11
82.7408
 21
-18.1482
  0
LINE
  8
0
 10
82.7408
 20
-18.1482
 11
82.833
 21
-18.629
  0
LINE
  8
0
 10
82.833
 20
-18.629
 11
82.7075
 21
-19.1022
  0
LINE
  8
0
 10
82.7075
 20
-19.1022
 11
82.3891
 21
-19.474
  0
LINE
  8
0
 10
82.3891
 20
-19.474
 11
81.9409
 21
-19.6709
  0
LINE
  8
0
 10
81.9409
 20
-19.6709
 11
81.6025
 21
-19.6591
  0
LINE
  8
0
 10
81.6025
 20
-19.6591
 11
81.5996
 21
-19.6824
  0
LINE
  8
0
 10
81.5996
 20
-19.6824
 11
81.5897
 21
-19.6812
  0
LINE
  8
0
 10
81.5897
 20
-19.6812
 11
81.5093
 21
-19.6559
  0
LINE
  8
0
 10
81.5093
 20
-19.6559
 11
81.4516
 21
-19.6538
  0
LINE
  8
0
 10
81.4516
 20
-19.6538
 11
81.3748
 21
-19.6135
  0
LINE
  8
0
 10
81.3748
 20
-19.6135
 11
76.3615
 21
-18.0336
  0
LINE
  8
0
 10
76.3615
 20
-18.0336
 11
76.3589
 21
-18.0546
  0
LINE
  8
0
 10
76.3589
 20
-18.0546
 11
75.3213
 21
-18.0863
  0
LINE
  8
0
 10
75.3213
 20
-18.0863
 11
74.254
 21
-18.5671
  0
LINE
  8
0
 10
74.254
 20
-18.5671
 11
73.452
 21
-19.4196
  0
LINE
  8
0
 10
73.452
 20
-19.4196
 11
73.0373
 21
-20.5143
  0
LINE
  8
0
 10
73.0373
 20
-20.5143
 11
73.073
 21
-21.6843
  0
LINE
  8
0
 10
73.073
 20
-21.6843
 11
73.5538
 21
-22.7515
  0
LINE
  8
0
 10
73.5538
 20
-22.7515
 11
74.4064
 21
-23.5536
  0
LINE
  8
0
 10
74.4064
 20
-23.5536
 11
75.501
 21
-23.9683
  0
LINE
  8
0
 10
75.501
 20
-23.9683
 11
75.6333
 21
-23.9642
  0
LINE
  8
0
 10
75.6333
 20
-23.9642
 11
75.6305
 21
-23.987
  0
LINE
  8
0
 10
75.6305
 20
-23.987
 11
81.5858
 21
-24.7183
  0
LINE
  8
0
 10
81.5858
 20
-24.7183
 11
81.5881
 21
-24.6995
  0
ENDSEC
  0
SECTION
  2
OBJECTS
  0
DICTIONARY
  0
ENDSEC
  0
EOF
